<svg width="163" height="40" viewBox="0 0 163 40" fill="none" xmlns="http://www.w3.org/2000/svg">
<path d="M54.2411 27.9585V12.8719H60.5819C61.4704 12.8719 62.2657 13.0875 62.9678 13.5185C63.6843 13.9352 64.2504 14.5099 64.6659 15.2427C65.0958 15.9611 65.3107 16.7728 65.3107 17.678C65.3107 18.612 65.0958 19.4526 64.6659 20.1997C64.2504 20.9324 63.6843 21.5215 62.9678 21.9669C62.2657 22.398 61.4704 22.6135 60.5819 22.6135H57.3363V27.9585H54.2411ZM57.3148 19.7901H60.2595C60.7897 19.7901 61.2339 19.5962 61.5921 19.2083C61.9648 18.8059 62.151 18.3103 62.151 17.7212C62.151 17.1322 61.9648 16.6508 61.5921 16.2772C61.2339 15.8892 60.7897 15.6953 60.2595 15.6953H57.3148V19.7901Z" fill="#494D4B"/>
<path d="M72.8734 28.0969C71.7044 28.0969 70.6651 27.8469 69.7557 27.3468C68.8463 26.8325 68.1318 26.1326 67.6122 25.2468C67.0926 24.3611 66.8328 23.3467 66.8328 22.2039C66.8328 21.0751 67.0926 20.0681 67.6122 19.1823C68.1318 18.2964 68.8463 17.6036 69.7557 17.1036C70.6651 16.5893 71.7044 16.3322 72.8734 16.3322C74.0138 16.3322 75.0387 16.5893 75.948 17.1036C76.8574 17.6036 77.5718 18.2964 78.0915 19.1823C78.6111 20.0681 78.871 21.0751 78.871 22.2039C78.871 23.3467 78.6111 24.3611 78.0915 25.2468C77.5718 26.1326 76.8574 26.8325 75.948 27.3468C75.0387 27.8469 74.0138 28.0969 72.8734 28.0969ZM72.8734 25.5468C73.4509 25.5468 73.9706 25.4039 74.4325 25.1182C74.8943 24.8181 75.248 24.4181 75.4933 23.9182C75.7532 23.4181 75.883 22.8466 75.883 22.2039C75.883 21.5609 75.7532 20.9895 75.4933 20.4894C75.248 19.9895 74.8943 19.5965 74.4325 19.3108C73.9706 19.0252 73.4509 18.8822 72.8734 18.8822C72.2816 18.8822 71.7549 19.0252 71.293 19.3108C70.8311 19.5965 70.4702 19.9895 70.2104 20.4894C69.9505 20.9895 69.8206 21.5609 69.8206 22.2039C69.8206 22.8466 69.9505 23.4181 70.2104 23.9182C70.4702 24.4181 70.8311 24.8181 71.293 25.1182C71.7549 25.4039 72.2816 25.5468 72.8734 25.5468Z" fill="#494D4B"/>
<path d="M85.5278 28.0969C84.5152 28.0969 83.6109 27.8472 82.8153 27.3477C82.0195 26.8339 81.3902 26.1345 80.9274 25.2497C80.4789 24.3648 80.2546 23.3587 80.2546 22.2313C80.2546 21.0895 80.4789 20.0764 80.9274 19.1915C81.3902 18.3067 82.0195 17.6145 82.8153 17.115C83.6109 16.6012 84.5152 16.3443 85.5278 16.3443C86.2223 16.3443 86.8805 16.48 87.5026 16.7511C88.1391 17.0223 88.6527 17.3719 89.0434 17.8V12.0415H92.0161V27.8827H89.1953L89.1518 26.5341C88.7757 26.9766 88.2621 27.3477 87.6111 27.6473C86.9601 27.947 86.2657 28.0969 85.5278 28.0969ZM86.1788 25.6565C87.0613 25.6565 87.7774 25.3425 88.3272 24.7146C88.8769 24.0724 89.1518 23.2445 89.1518 22.2313C89.1518 21.2037 88.8769 20.376 88.3272 19.7481C87.7774 19.1059 87.0613 18.7848 86.1788 18.7848C85.2964 18.7848 84.5802 19.1059 84.0305 19.7481C83.4807 20.376 83.2059 21.2037 83.2059 22.2313C83.2059 23.2445 83.4807 24.0724 84.0305 24.7146C84.5802 25.3425 85.2964 25.6565 86.1788 25.6565Z" fill="#494D4B"/>
<path d="M99.8061 28.0969C98.7196 28.0969 97.7419 27.8397 96.8728 27.3254C96.0182 26.8111 95.3374 26.1111 94.8304 25.2253C94.338 24.3396 94.0917 23.3324 94.0917 22.2039C94.0917 21.0895 94.338 20.0894 94.8304 19.2037C95.3374 18.3179 96.0182 17.618 96.8728 17.1036C97.7419 16.5893 98.7196 16.3322 99.8061 16.3322C100.834 16.3322 101.769 16.5179 102.609 16.8894C103.463 17.2607 104.13 17.7823 104.608 18.4537L102.978 20.3823C102.674 19.968 102.254 19.618 101.718 19.3323C101.182 19.0322 100.639 18.8822 100.088 18.8822C99.4801 18.8822 98.937 19.0322 98.4589 19.3323C97.9954 19.618 97.6261 20.0109 97.3508 20.5108C97.09 21.0109 96.9597 21.5752 96.9597 22.2039C96.9597 22.8324 97.0974 23.3967 97.3726 23.8967C97.6478 24.3968 98.0243 24.7968 98.5024 25.0967C98.9804 25.3825 99.5163 25.5254 100.11 25.5254C100.675 25.5254 101.197 25.4039 101.675 25.1611C102.153 24.9039 102.587 24.5467 102.978 24.0895L104.608 26.0182C104.115 26.6468 103.435 27.154 102.565 27.5396C101.696 27.9111 100.776 28.0969 99.8061 28.0969Z" fill="#494D4B"/>
<path d="M110.694 28.0969C109.762 28.0969 108.921 27.8397 108.173 27.3254C107.424 26.8111 106.824 26.1111 106.372 25.2253C105.934 24.3396 105.715 23.3324 105.715 22.2039C105.715 21.0466 105.934 20.0322 106.372 19.1608C106.824 18.2751 107.431 17.5823 108.194 17.0822C108.971 16.5821 109.847 16.3322 110.821 16.3322C111.612 16.3322 112.305 16.4964 112.898 16.825C113.491 17.1394 113.964 17.5536 114.318 18.0679V16.5679H117.199V27.8826H114.296V26.3611C113.901 26.8612 113.385 27.2754 112.75 27.604C112.128 27.9326 111.443 28.0969 110.694 28.0969ZM111.478 25.5468C112.34 25.5468 113.039 25.2396 113.576 24.6253C114.113 24.0111 114.381 23.2039 114.381 22.2039C114.381 21.2037 114.113 20.3967 113.576 19.7823C113.039 19.168 112.34 18.8609 111.478 18.8609C110.631 18.8609 109.938 19.168 109.402 19.7823C108.879 20.3967 108.618 21.2037 108.618 22.2039C108.618 23.2039 108.879 24.0111 109.402 24.6253C109.938 25.2396 110.631 25.5468 111.478 25.5468Z" fill="#494D4B"/>
<path d="M124.2 28.0969C123.15 28.0969 122.216 27.9254 121.397 27.5825C120.578 27.2397 119.916 26.754 119.413 26.1254L121.267 24.5611C121.699 25.0325 122.187 25.3753 122.734 25.5896C123.28 25.7896 123.833 25.8897 124.394 25.8897C124.839 25.8897 125.199 25.7896 125.472 25.5896C125.745 25.3896 125.881 25.111 125.881 24.7539C125.881 24.4396 125.752 24.1896 125.493 24.0039C125.235 23.8324 124.616 23.6181 123.639 23.3609C122.187 22.9896 121.16 22.4823 120.556 21.8396C120.024 21.2681 119.758 20.5609 119.758 19.718C119.758 19.0465 119.959 18.4607 120.362 17.9608C120.764 17.4465 121.296 17.0465 121.957 16.7608C122.619 16.475 123.337 16.3322 124.113 16.3322C125.005 16.3322 125.845 16.4892 126.636 16.8036C127.426 17.1179 128.088 17.5465 128.62 18.0894L127.024 19.8252C126.622 19.4537 126.154 19.1465 125.623 18.9036C125.105 18.6465 124.624 18.5179 124.178 18.5179C123.143 18.5179 122.626 18.8751 122.626 19.5895C122.64 19.9323 122.798 20.2037 123.1 20.4037C123.388 20.6037 124.042 20.8394 125.062 21.1108C126.427 21.4681 127.391 21.9395 127.951 22.5252C128.44 23.0253 128.684 23.6895 128.684 24.5182C128.684 25.2039 128.483 25.8182 128.08 26.3611C127.692 26.9039 127.161 27.3326 126.485 27.6469C125.809 27.9468 125.048 28.0969 124.2 28.0969Z" fill="#494D4B"/>
<path d="M132.043 27.9585V19.3345H129.93V16.7154H132.043V13.8408H134.917V16.7154H137.263V19.3345H134.917V27.9585H132.043Z" fill="#494D4B"/>
<path d="M36.3909 19.8281C36.4126 22.6571 35.6895 25.4417 34.294 27.9023C34.1133 28.222 33.9218 28.5347 33.7198 28.8403C33.6198 28.9957 33.4901 29.1297 33.3379 29.2345C33.186 29.3394 33.0145 29.413 32.8338 29.4511C32.653 29.4892 32.4664 29.4908 32.285 29.4564C32.1036 29.4219 31.9308 29.3516 31.7767 29.2497C31.6227 29.1479 31.4902 29.0165 31.3874 28.863C31.2844 28.7097 31.213 28.5373 31.1771 28.3562C31.1413 28.175 31.1417 27.9884 31.1785 27.8074C31.2153 27.6262 31.2877 27.4544 31.3913 27.3015C32.7231 25.2793 33.4822 22.9342 33.5881 20.5151C33.6939 18.0958 33.1424 15.6932 31.9921 13.5626C30.842 11.4319 29.1359 9.65271 27.0556 8.41422C24.9752 7.17571 22.5983 6.52414 20.1774 6.52876C15.5239 6.53783 11.3979 8.98122 8.99964 12.632C7.56599 14.8101 6.80307 17.3611 6.80556 19.9688C6.80804 22.5765 7.5758 25.1261 9.0136 27.3015C9.21745 27.6104 9.29022 27.9879 9.21589 28.3505C9.14155 28.7131 8.92622 29.0315 8.61727 29.2355C8.3083 29.4392 7.93102 29.512 7.56841 29.4377C7.20581 29.3634 6.88757 29.148 6.68374 28.8389C5.08945 26.4191 4.17371 23.6155 4.03206 20.721C3.89041 17.8265 4.52804 14.9469 5.87843 12.3829C7.22879 9.81885 9.24243 7.66428 11.7092 6.14402C14.176 4.62374 17.0055 3.79348 19.9024 3.73989C20.0043 3.7378 20.1054 3.73709 20.2066 3.73709C24.485 3.72828 28.5921 5.41769 31.6263 8.43451C34.6606 11.4514 36.3742 15.5491 36.3909 19.8281Z" fill="#494D4B"/>
<path d="M10.4044 22.4305L12.8386 35.005C12.9847 35.7599 13.6923 36.2488 14.4193 36.0969C15.1462 35.9452 15.617 35.2103 15.4709 34.4555L13.0368 21.881C12.8906 21.1261 12.1829 20.6371 11.456 20.7888C10.7291 20.9407 10.2583 21.6756 10.4044 22.4305Z" fill="#04D361"/>
<path d="M12.8684 34.5374L12.2309 34.6659C11.2836 34.8567 10.2992 34.6782 9.47901 34.1669C8.65887 33.6555 8.06496 32.85 7.81876 31.9149C7.80004 31.8428 7.78269 31.7705 7.76812 31.697L6.85447 27.1551C6.65648 26.1693 6.85778 25.1449 7.41415 24.3075C7.97051 23.47 8.83642 22.8879 9.82156 22.689L10.4591 22.5605L11.5774 28.1193L12.8684 34.5374Z" fill="#494D4B"/>
<path d="M12.8685 34.5411L12.2222 34.6672C11.2616 34.8547 10.2636 34.6794 9.43208 34.1769C8.60054 33.6747 7.9984 32.8831 7.74878 31.9645C9.11486 30.8171 10.3888 29.5704 11.5595 28.2354L12.8685 34.5411Z" fill="#494D4B"/>
<path d="M34.5224 26.2484L34.213 27.8966C34.0437 28.2174 33.8647 28.5312 33.6755 28.8379C33.582 28.9939 33.4606 29.1284 33.3183 29.2336C33.176 29.3388 33.0156 29.4127 32.8466 29.4509C32.6775 29.4891 32.503 29.4909 32.3332 29.4562C32.1634 29.4216 32.0018 29.3511 31.8575 29.2489C31.7133 29.1467 31.5895 29.0147 31.4932 28.8608C31.3969 28.7068 31.33 28.5338 31.2964 28.352C31.2629 28.1701 31.2633 27.983 31.2978 27.8012C31.3322 27.6195 31.3998 27.4469 31.4969 27.2934C32.3821 25.8563 32.9999 24.2493 33.3165 22.5605C33.8078 23.0022 34.1792 23.5778 34.3915 24.2268C34.6037 24.8758 34.6488 25.5742 34.5224 26.2484Z" fill="#494D4B"/>
<path d="M32.932 9.92424L30.9291 11.9183C29.6812 10.2381 28.0537 8.87377 26.1782 7.93551C24.3027 6.99727 22.2319 6.5114 20.1329 6.51721C15.4772 6.52625 11.3494 8.95954 8.94995 12.5952L6.91846 10.5727C8.38316 8.50053 10.3184 6.80174 12.5668 5.61446C14.8151 4.42716 17.3132 3.78489 19.8579 3.73987C19.9598 3.73779 20.061 3.7371 20.1623 3.7371C22.6236 3.73161 25.0537 4.28619 27.2668 5.3585C29.48 6.43082 31.4177 7.99248 32.932 9.92424Z" fill="#8257E5"/>
<path d="M27.1571 21.7425L24.6572 34.317C24.5072 35.0719 24.9906 35.8068 25.7371 35.9587C26.4838 36.1104 27.2106 35.6214 27.3608 34.8665L29.8607 22.292C30.0107 21.5372 29.5271 20.8023 28.7806 20.6506C28.0341 20.4987 27.3072 20.9876 27.1571 21.7425Z" fill="#04D361"/>
<path d="M33.5479 27.1551L32.6135 31.697C32.4106 32.6828 31.8158 33.5495 30.9598 34.1063C30.104 34.6631 29.0571 34.8643 28.0493 34.6659L27.3973 34.5376L28.0729 31.2562L29.8614 22.5605L30.5134 22.689C31.5208 22.8882 32.4065 23.47 32.976 24.307C33.0545 24.4224 33.1263 24.542 33.191 24.6652C33.5958 25.4314 33.7217 26.3096 33.5479 27.1551Z" fill="#494D4B"/>
<path d="M33.5479 27.238L32.6135 31.7303C32.4106 32.7054 31.8158 33.5626 30.9598 34.1133C30.104 34.664 29.0571 34.863 28.0493 34.6668L27.3973 34.5397L28.0729 31.2943C30.0165 29.3059 31.7325 27.1202 33.191 24.7751C33.5958 25.5329 33.7217 26.4017 33.5479 27.238Z" fill="#494D4B"/>
<path d="M151.377 27.9585V16.5694H154.179L154.222 18.4461C154.59 17.8277 155.07 17.3244 155.665 16.9362C156.274 16.5335 156.91 16.3322 157.576 16.3322C157.831 16.3322 158.063 16.3537 158.276 16.3969C158.502 16.4256 158.693 16.4688 158.849 16.5263L158.063 19.7618C157.908 19.6755 157.71 19.6036 157.469 19.5461C157.229 19.4886 156.988 19.4598 156.747 19.4598C156.054 19.4598 155.467 19.7043 154.986 20.1932C154.518 20.6678 154.285 21.2717 154.285 22.0051V27.9585H151.377Z" fill="#494D4B"/>
<path d="M144.09 28.0413C142.927 28.0413 141.923 27.8053 141.084 27.3335C140.248 26.8568 139.604 26.1834 139.152 25.3134C138.701 24.4385 138.474 23.4039 138.474 22.2096C138.474 21.0447 138.701 20.0223 139.152 19.1426C139.604 18.2627 140.241 17.5771 141.061 17.0856C141.887 16.5941 142.855 16.3483 143.966 16.3483C144.712 16.3483 145.408 16.4688 146.051 16.7097C146.7 16.9455 147.265 17.3019 147.746 17.7786C148.233 18.2554 148.611 18.855 148.882 19.5775C149.152 20.2951 149.288 21.1357 149.288 22.099V22.9616H139.728V21.0153H146.332C146.332 20.5629 146.234 20.1624 146.036 19.8135C145.839 19.4645 145.567 19.1917 145.218 18.995C144.875 18.7935 144.474 18.6928 144.017 18.6928C143.541 18.6928 143.118 18.8034 142.75 19.0245C142.386 19.2409 142.101 19.5333 141.894 19.9019C141.688 20.2656 141.582 20.6712 141.578 21.1184V22.9689C141.578 23.5293 141.68 24.0133 141.887 24.4213C142.098 24.8292 142.395 25.1438 142.779 25.365C143.162 25.5862 143.617 25.6968 144.143 25.6968C144.492 25.6968 144.81 25.6476 145.1 25.5494C145.391 25.4511 145.639 25.3036 145.845 25.107C146.051 24.9103 146.209 24.6695 146.317 24.3845L149.221 24.5761C149.073 25.2741 148.771 25.8836 148.313 26.4046C147.862 26.9206 147.277 27.3236 146.56 27.6137C145.848 27.8987 145.024 28.0413 144.09 28.0413Z" fill="#494D4B"/>
</svg>
